<svg xmlns="http://www.w3.org/2000/svg" xmlns:xlink="http://www.w3.org/1999/xlink" width="553" height="600" viewBox="0 0 553 600">
  <defs>
    <clipPath id="clip-Logo">
      <rect width="553" height="600"/>
    </clipPath>
  </defs>
  <g id="Logo" clip-path="url(#clip-Logo)">
    <g id="Group_59" data-name="Group 59" transform="translate(-69.446 -200.473)">
      <g id="Group_60" data-name="Group 60" transform="translate(69.446 200.473)">
        <g id="pen_frame" data-name="pen&amp;frame" transform="translate(0 0)">
          <g id="frame" transform="translate(0 0)" fill="none" stroke="#000" stroke-width="10">
            <rect width="553" height="336" rx="25" stroke="none"/>
            <rect x="5" y="5" width="543" height="326" rx="20" fill="none"/>
          </g>
          <g id="frame-2" data-name="frame" transform="translate(34 39)" fill="none" stroke="#000" stroke-width="10">
            <rect width="487" height="258" rx="25" stroke="none"/>
            <rect x="5" y="5" width="477" height="248" rx="20" fill="none"/>
          </g>
          <g id="pen" transform="translate(214.562 51.14)">
            <g id="Rectangle_46" data-name="Rectangle 46" transform="translate(305.737 50.174) rotate(168)" fill="none" stroke="#000" stroke-width="10">
              <rect width="255.16" height="51.295" rx="10" stroke="none"/>
              <rect x="5" y="5" width="245.16" height="41.295" rx="5" fill="none"/>
            </g>
            <g id="Rectangle_47" data-name="Rectangle 47" transform="translate(305.737 50.174) rotate(168)" fill="none" stroke="#000" stroke-width="10">
              <rect width="43.404" height="51.295" rx="10" stroke="none"/>
              <rect x="5" y="5" width="33.404" height="41.295" rx="5" fill="none"/>
            </g>
            <line id="Line_30" data-name="Line 30" x2="207.811" transform="translate(58.852 75.846) rotate(-12)" fill="none" stroke="#000" stroke-linecap="round" stroke-width="10"/>
            <g id="Polygon_4" data-name="Polygon 4" transform="matrix(-0.225, -0.974, 0.974, -0.225, 13.018, 116.845)" fill="none">
              <path d="M24.407,9.674a5,5,0,0,1,9.057,0L54.539,54.7a5,5,0,0,1-4.528,7.12H7.861A5,5,0,0,1,3.333,54.7Z" stroke="none"/>
              <path d="M 28.93568420410156 23.58823776245117 L 15.72216033935547 51.817138671875 L 42.14920806884766 51.817138671875 L 28.93568420410156 23.58823776245117 M 28.93568420410156 6.794109344482422 C 30.75050163269043 6.794109344482422 32.56532287597656 7.754207611083984 33.46413803100586 9.674407958984375 L 54.53873825073242 54.69742584228516 C 56.09062957763672 58.0128288269043 53.67092132568359 61.817138671875 50.01028442382812 61.817138671875 L 7.861083984375 61.817138671875 C 4.200447082519531 61.817138671875 1.780738830566406 58.0128288269043 3.332630157470703 54.69742584228516 L 24.40723037719727 9.674407958984375 C 25.30604934692383 7.754207611083984 27.1208667755127 6.794109344482422 28.93568420410156 6.794109344482422 Z" stroke="none"/>
            </g>
            <line id="Line_31" data-name="Line 31" y1="1.315" x2="18.414" transform="translate(14.491 85.782) rotate(-8)" fill="none" stroke="#000" stroke-linecap="round" stroke-width="7"/>
          </g>
        </g>
        <g id="Polygon_5" data-name="Polygon 5" transform="translate(69 181)" fill="none">
          <path d="M47.945,10.065a5,5,0,0,1,9.11,0L101.8,108.938A5,5,0,0,1,97.249,116H7.751A5,5,0,0,1,3.2,108.938Z" stroke="none"/>
          <path d="M 52.5 24.25282287597656 L 15.50235748291016 106 L 89.49762725830078 106 L 52.5 24.25282287597656 M 52.5 7.126411437988281 C 54.33430480957031 7.126411437988281 56.16860580444336 8.105865478515625 57.05519104003906 10.06478118896484 L 101.8040008544922 108.9383773803711 C 103.3019561767578 112.2481155395508 100.8817596435547 116 97.24880981445312 116 L 7.751167297363281 116 C 4.118240356445312 116 1.698043823242188 112.2481155395508 3.195999145507812 108.9383773803711 L 47.94480895996094 10.06478118896484 C 48.83139419555664 8.105865478515625 50.66569519042969 7.126411437988281 52.5 7.126411437988281 Z" stroke="none"/>
        </g>
        <g id="Polygon_6" data-name="Polygon 6" transform="translate(148 115)" fill="none">
          <path d="M54.748,14.537a5,5,0,0,1,9.5,0l52.6,160.909A5,5,0,0,1,112.1,182H6.9a5,5,0,0,1-4.752-6.554Z" stroke="none"/>
          <path d="M 59.50000381469727 32.18141174316406 L 13.79006958007812 171.9999847412109 L 105.2099227905273 171.9999847412109 L 59.50000381469727 32.18141174316406 M 59.50000381469727 11.09066772460938 C 61.50068283081055 11.09066772460938 63.50136184692383 12.23944091796875 64.25247192382812 14.5369873046875 L 116.8574447631836 175.4463043212891 C 117.9141616821289 178.6786041259766 115.5055999755859 181.9999847412109 112.1049728393555 181.9999847412109 L 6.895034790039062 181.9999847412109 C 3.494377136230469 181.9999847412109 1.085845947265625 178.6786041259766 2.142562866210938 175.4463043212891 L 54.74753570556641 14.5369873046875 C 55.4986457824707 12.23944091796875 57.49932479858398 11.09066772460938 59.50000381469727 11.09066772460938 Z" stroke="none"/>
        </g>
        <g id="Ellipse_11" data-name="Ellipse 11" transform="translate(99 88)" fill="none" stroke="#000" stroke-width="10">
          <ellipse cx="34" cy="34.5" rx="34" ry="34.5" stroke="none"/>
          <ellipse cx="34" cy="34.5" rx="29" ry="29.5" fill="none"/>
        </g>
        <g id="Group_58" data-name="Group 58" transform="translate(286.926 176.407)">
          <line id="Line_32" data-name="Line 32" x2="164.407" fill="none" stroke="#000" stroke-linecap="round" stroke-width="10"/>
          <line id="Line_33" data-name="Line 33" x2="111.797" transform="translate(0 32.881)" fill="none" stroke="#000" stroke-linecap="round" stroke-width="10"/>
          <line id="Line_35" data-name="Line 35" x2="144.678" transform="translate(0 65.763)" fill="none" stroke="#000" stroke-linecap="round" stroke-width="10"/>
        </g>
      </g>
      <path id="Path_15" data-name="Path 15" d="M252.032,0,0,204.869" transform="matrix(1, 0.017, -0.017, 1, 94.047, 560.562)" fill="none" stroke="#000" stroke-linecap="round" stroke-width="15"/>
      <path id="Path_18" data-name="Path 18" d="M252.032,204.869,0,0" transform="matrix(-1, 0.017, -0.017, -1, 601.041, 765.4)" fill="none" stroke="#000" stroke-linecap="round" stroke-width="15"/>
      <path id="Path_17" data-name="Path 17" d="M0,0V256.189" transform="translate(344.534 537.086)" fill="none" stroke="#000" stroke-linecap="round" stroke-width="15"/>
    </g>
  </g>
</svg>
